<?xml version="1.0" encoding="UTF-8"?><svg xmlns="http://www.w3.org/2000/svg" xmlns:xlink="http://www.w3.org/1999/xlink" viewBox="0 0 379 344.5"><defs><style>.cls-1{fill:none;stroke:#3b882f;stroke-linecap:round;stroke-miterlimit:10;stroke-width:16px;}.cls-2{fill:#5ca93b;filter:url(#drop-shadow-1);}</style><filter id="drop-shadow-1" filterUnits="userSpaceOnUse"><feOffset dx="7" dy="7"/><feGaussianBlur result="blur" stdDeviation="5"/><feFlood flood-color="#000" flood-opacity=".75"/><feComposite in2="blur" operator="in"/><feComposite in="SourceGraphic"/></filter></defs><g id="Layer_3"><path class="cls-2" d="m242.78,242.65c-10.94,19.15-40.46,53.85-92.84,59.75-41.75,4.7-72.4-12.73-89.4-22.73S.25,234.33,10,168c9.5-64.6,63.09-100.36,93.21-116.15,46.85-24.55,91.76-30.58,139.47-36.19,51-6,93-7,93-7,0,0,20-2,21,4s-15.37,22.78-21,30c-16.72,21.42-42.95,65-55.68,93.34-16.78,37.35-18,73-37.22,106.65Z"/></g><g id="Layer_2"><path class="cls-1" d="m19.5,336.5s14.31-55.11,46-107c45.5-74.5,97-114,148-135"/></g></svg>